<svg width="45" height="45" viewBox="0 0 45 45" fill="none" xmlns="http://www.w3.org/2000/svg">
<path d="M1.42529 22.875L1.27529 22.8C0.937793 22.6125 0.675293 22.3313 0.487793 21.975C0.225293 21.4875 0.112793 21.0375 0.112793 20.5688L0.150293 20.325C0.150293 19.95 0.244043 19.6125 0.412793 19.2937L0.562793 19.0125C0.637793 18.8625 0.750293 18.7313 0.844043 18.6C0.956543 18.4688 0.975293 18.3 0.937793 18.15L0.844043 17.85C0.731543 17.475 0.656543 17.1 0.656543 16.725L0.600293 16.5C0.600293 16.0875 0.712793 15.675 0.975293 15.375L1.16279 15.1312C1.29404 14.9437 1.50029 14.8312 1.72529 14.7562C1.91279 14.7 2.04404 14.5125 2.06279 14.2875L2.10029 13.65C2.10029 13.1438 2.34404 12.675 2.71904 12.3375L3.16904 12C3.26279 11.9063 3.35654 11.8125 3.43154 11.6625C3.52529 11.55 3.54404 11.4 3.52529 11.2875C3.48779 11.1 3.52529 11.0438 3.61904 11.025C3.91904 11.1375 4.10654 11.1 4.23779 10.95L4.48154 10.6313L5.15654 9.88125C5.25348 9.77762 5.31904 9.64862 5.34559 9.50922C5.37214 9.36983 5.3586 9.22576 5.30654 9.09375L5.08154 8.60625C5.04404 8.49375 5.08154 8.3625 5.17529 8.325C5.41904 8.325 5.58779 8.41875 5.66279 8.56875L5.73779 8.7C5.85029 8.925 6.11279 9.0375 6.30029 8.94375C6.71279 8.79375 7.05029 8.75625 7.36904 8.75625H7.96904C8.38154 8.75625 8.71904 8.475 8.79404 8.04375C8.86904 7.51875 9.05654 7.10625 9.31904 6.825C9.60029 6.50625 9.91904 6.2625 10.294 6.075C10.7815 5.8125 11.0815 5.4375 11.1753 4.95C11.3065 4.35 11.6253 3.91875 12.0565 3.6375L13.4815 2.83125L13.894 2.5875C14.1378 2.4375 14.3628 2.25 14.5503 2.025L14.9253 1.575C15.1128 1.3875 15.3003 1.25625 15.5253 1.2C15.7128 1.14375 15.9753 1.10625 16.2003 1.125L16.9503 1.18125C17.3253 1.18125 17.6253 1.275 17.9253 1.40625L18.1128 1.5C18.3003 1.575 18.4878 1.5375 18.5815 1.40625L18.7503 1.3125L19.5565 0.46875C19.744 0.28125 19.969 0.20625 20.2128 0.24375C20.4565 0.28125 20.7003 0.375 20.9253 0.4875C21.2628 0.675 21.544 0.75 21.8628 0.75H22.0503C22.4628 0.75 22.8753 0.80625 23.2878 0.9L23.569 0.975C23.8503 1.05 24.1315 0.9375 24.319 0.7125C24.3753 0.61875 24.5065 0.6 24.5815 0.675C24.6378 0.7125 24.6565 0.75 24.6753 0.80625C24.7128 1.18125 24.9378 1.4625 25.2378 1.55625L25.5378 1.65C25.8552 1.74535 26.1321 1.94314 26.3253 2.2125C26.5128 2.49375 26.7378 2.775 27.0003 2.9625L27.1878 3.15C27.3753 3.3375 27.6378 3.4125 27.9003 3.39375H29.0065C29.4565 3.39375 29.8878 3.46875 30.319 3.65625C30.7315 3.84375 31.1628 3.88125 31.5565 3.73125C31.969 3.6 32.4003 3.54375 32.8315 3.6L33.6378 3.73125C34.0128 3.76875 34.3878 3.95625 34.6128 4.2375L34.7065 4.33125C34.894 4.51875 35.0815 4.7625 35.269 5.025C35.3815 5.26875 35.644 5.4 35.9065 5.4H37.069C37.3503 5.4 37.6315 5.45625 37.8565 5.5875C38.1003 5.775 38.3065 5.9625 38.494 6.15L38.6815 6.39375C38.9065 6.65625 39.019 7.0125 39.0003 7.3875C39.0003 7.6875 39.2253 7.95 39.5253 7.95L39.9003 7.9875C40.1628 7.9875 40.3878 8.175 40.519 8.41875L40.7065 8.79375L41.194 9.88125C41.269 10.0687 41.2878 10.2563 41.269 10.4063C41.269 10.5938 41.3253 10.7437 41.4565 10.8187L41.644 10.95C41.8878 11.1375 42.019 11.4188 41.9815 11.7375L41.8503 12.6188L41.8128 12.9937C41.7753 13.1812 41.869 13.425 42.0378 13.5563C42.319 13.7438 42.4503 13.9875 42.469 14.2688V14.6437C42.469 14.8312 42.4315 15.0562 42.2815 15.2062C42.169 15.3562 42.094 15.5437 42.094 15.7687L42.1503 16.2C42.1503 16.5 42.3378 16.7625 42.5253 16.95C42.7878 17.1375 42.9378 17.4375 42.9753 17.7375C43.0503 18.2063 43.069 18.5812 43.069 18.9562V19.3875C43.069 19.5375 43.069 19.6875 43.1253 19.8375C43.1628 19.9687 43.2565 20.1 43.369 20.175L43.744 20.4562C44.119 20.7 44.3815 21.0187 44.5315 21.45C44.719 21.8625 44.7753 22.2937 44.7753 22.725V22.875C44.7753 23.2125 44.7378 23.5687 44.6253 23.8875C44.5295 24.1965 44.5495 24.5297 44.6815 24.825C44.8315 25.0875 44.9253 25.3875 44.9628 25.7063C45.0378 26.0813 45.0003 26.4563 44.869 26.7563L44.8315 26.8875C44.7378 27.1125 44.5878 27.3187 44.4003 27.4875C44.2128 27.675 44.0253 27.7875 43.9128 27.9188C43.8003 28.0313 43.7253 28.2188 43.7815 28.3875L43.8378 28.65C43.9315 29.025 43.9315 29.4 43.8378 29.7375V29.8875C43.7628 30.1687 43.6503 30.4125 43.5378 30.6375C43.4065 30.8813 43.219 31.0687 42.9753 31.2L42.694 31.3875C42.6248 31.4317 42.5679 31.4927 42.5286 31.5649C42.4892 31.637 42.4688 31.7179 42.469 31.8C42.469 31.9875 42.394 32.175 42.2815 32.2875L42.0003 32.6625C41.8128 32.9063 41.569 33.1125 41.3065 33.225C41.044 33.4125 40.819 33.6 40.6503 33.7875C40.4628 34.0125 40.3128 34.275 40.2378 34.5375C40.1628 34.875 39.9003 35.0625 39.619 35.0625H38.6065C38.344 35.0625 38.1003 35.25 37.9878 35.475C37.8565 35.775 37.7253 35.9813 37.5565 36.1688C37.3748 36.3572 37.2455 36.5899 37.1815 36.8437C37.144 37.0687 36.9565 37.2187 36.769 37.1437C36.5253 37.0312 36.2815 37.1437 36.169 37.3312C35.944 37.7062 35.719 37.9875 35.4753 38.2312L35.344 38.3438C35.1003 38.5313 34.7815 38.6812 34.5003 38.6812C34.1628 38.6812 33.994 38.8312 33.9378 39.0562C33.8815 39.2437 33.844 39.4875 33.8253 39.6938C33.7878 39.9188 33.7128 40.125 33.6378 40.3125L33.544 40.425C33.3565 40.7062 33.2065 40.9875 33.019 41.2312L32.944 41.3437C32.7003 41.6625 32.3815 41.9062 32.0065 42C31.6075 42.1314 31.1891 42.1948 30.769 42.1875H30.5065C30.319 42.1875 30.1315 42.3 30.0003 42.4875L29.8878 42.675L29.7753 42.9L29.5315 43.3125C29.344 43.65 29.0628 43.875 28.6878 43.9875C28.3128 44.0812 27.8815 44.1188 27.4878 44.1L27.1878 44.0625C26.9253 44.0625 26.6815 43.9875 26.4378 43.875C26.2503 43.8 25.9878 43.875 25.8753 44.0625C25.6878 44.325 25.4628 44.475 25.219 44.55L24.6565 44.7375C24.2815 44.8313 23.869 44.8313 23.4753 44.7375L23.1753 44.6437C22.9878 44.6437 22.8003 44.55 22.6503 44.4562C22.4776 44.3653 22.2822 44.3262 22.0878 44.3437L21.844 44.3813C21.469 44.4188 21.1315 44.3813 20.794 44.2875L20.2878 44.175C20.0567 44.0994 19.8583 43.9473 19.7253 43.7437C19.6683 43.6409 19.5874 43.5532 19.4896 43.4879C19.3917 43.4227 19.2797 43.3818 19.1628 43.3687H18.5628C18.1878 43.3125 17.8503 43.1812 17.6253 42.9L16.8753 42.1875L16.6128 41.9625L16.2003 41.6625L15.9565 41.475C15.6753 41.2875 15.3378 41.1375 14.9815 41.1L13.8565 40.9125C13.744 40.9125 13.669 40.875 13.5565 40.8563L13.1253 40.7625C12.9378 40.725 12.7503 40.575 12.619 40.3875C12.5065 40.2 12.3003 40.125 12.1128 40.2C11.7378 40.35 11.4378 40.3875 11.1378 40.4437H10.8753C10.3878 40.4812 9.93779 40.4063 9.48779 40.2C9.03779 40.0125 8.73779 39.7312 8.45654 39.375C8.23154 39.0562 7.89404 38.8125 7.48154 38.7375L6.95654 38.625C6.58154 38.55 6.20654 38.4 5.86904 38.175C5.49404 37.9125 5.30654 37.6688 5.15654 37.3688C5.00654 37.0875 4.91279 36.7688 4.89404 36.4313V36.2813C4.87762 36.0967 4.80634 35.9213 4.68939 35.7776C4.57244 35.6339 4.41516 35.5285 4.23779 35.475C3.80654 35.3438 3.48779 35.1563 3.20654 34.9125C3.07476 34.7868 2.97016 34.6355 2.8992 34.4678C2.82825 34.3001 2.79246 34.1196 2.79404 33.9375L2.83154 33.1125C2.83154 32.7937 2.73779 32.5125 2.51279 32.3062C2.28589 32.0978 2.15101 31.8078 2.13779 31.5L2.08154 30.825C2.03689 30.3321 1.95542 29.8432 1.83779 29.3625C1.72529 28.9312 1.89404 28.5 2.25029 28.2938L2.38154 28.2C2.56904 28.0687 2.64404 27.825 2.53154 27.6L2.38154 27.4125C2.22733 27.2436 2.03425 27.1149 1.81904 27.0375C1.66904 27 1.63154 26.85 1.63154 26.7563L1.81904 26.5312C1.93154 26.4 1.91279 26.1937 1.81904 26.0812C1.67909 25.94 1.59288 25.7543 1.57529 25.5563L1.53779 24.2438C1.53779 23.9813 1.57529 23.7188 1.65029 23.4563C1.72529 23.2313 1.65029 22.9687 1.42529 22.8562V22.875ZM19.9878 20.4C20.119 20.2688 20.1003 20.025 19.9878 19.9313C19.8142 19.7903 19.6681 19.6187 19.5565 19.425L19.369 19.125C19.2387 18.8897 19.0745 18.6749 18.8815 18.4875L18.844 18.45C18.6604 18.2968 18.513 18.1047 18.4128 17.8875C18.319 17.7 18.319 17.5125 18.4128 17.325L18.5253 17.1375C18.6378 16.95 18.7128 16.6875 18.7128 16.4625V16.3875C18.7128 16.2 18.6378 16.0125 18.5253 15.825C18.4503 15.675 18.3753 15.4875 18.3378 15.3V15.1875C18.2815 14.9625 18.3378 14.7188 18.4878 14.5312C18.6378 14.2875 18.7503 14.0625 18.8065 13.7812V13.7437C18.8815 13.5562 18.844 13.3125 18.7315 13.125C18.619 12.9375 18.5815 12.75 18.6565 12.525L18.7878 12.15C18.9003 11.8125 19.069 11.5125 19.294 11.25L19.5565 10.9687L19.744 10.7438L19.8565 10.6313C19.969 10.5188 19.9878 10.3312 19.894 10.1812C19.8003 9.99375 19.744 9.80625 19.7815 9.61875L19.819 9.35625C19.8753 8.98125 20.0065 8.60625 20.2503 8.30625L20.3253 8.23125C20.6065 7.85625 20.9628 7.6125 21.3753 7.48125L21.8815 7.29375C22.1065 7.21875 22.2565 6.975 22.2565 6.73125C22.2565 6.43125 22.3503 6.16875 22.519 5.925L22.6128 5.83125C22.8003 5.5125 23.0253 5.19375 23.1753 4.85625L23.3065 4.6125C23.344 4.55625 23.3628 4.48125 23.3628 4.425C23.3628 4.10625 23.1753 3.825 22.8753 3.80625L22.0503 3.75C21.5815 3.7125 21.1128 3.75 20.6628 3.75L19.069 3.9375C18.8253 3.9375 18.6378 4.125 18.619 4.3875C18.619 4.65 18.4315 4.875 18.2065 4.95L17.5315 5.1375L17.344 5.19375L16.7815 5.38125C16.369 5.5125 16.0315 5.8125 15.844 6.225L15.694 6.46875C15.5065 6.88125 15.1878 7.21875 14.794 7.4625C14.419 7.70625 14.2315 8.1 14.194 8.55V8.7375C14.1565 9.1125 14.044 9.4875 13.819 9.75L13.7253 9.9C13.5753 10.0875 13.5378 10.3312 13.6315 10.5375C13.7253 10.7625 13.7815 11.0063 13.7628 11.25V12.2438C13.7628 12.5063 13.5753 12.7312 13.3878 12.8062C13.1253 12.9 12.9565 13.1063 12.8815 13.3688L12.7878 13.7437C12.7128 14.1187 12.844 14.4937 13.1628 14.7187C13.4628 14.9437 13.6503 15.2812 13.7253 15.6937V16.0313C13.7815 16.4063 13.9878 16.7813 14.3253 16.9688C14.6628 17.1938 14.9253 17.5313 15.0753 17.9063L15.169 18.2063C15.319 18.6188 15.6565 18.8625 16.0315 18.9H16.144C16.4815 18.9 16.7815 19.0875 16.969 19.3875C17.1565 19.6875 17.4565 19.8938 17.794 19.95L18.319 20.1C18.6378 20.1938 18.9378 20.3625 19.1815 20.6062L19.219 20.6438C19.4065 20.7938 19.7065 20.775 19.8753 20.5688L20.0065 20.4188L19.9878 20.4ZM22.1253 18.675C22.3128 18.7875 22.5003 18.7312 22.5753 18.5625L22.6315 18.4688C22.7628 18.2063 22.9315 17.9437 23.119 17.7187L23.494 17.1562C23.5503 17.1562 23.569 17.1187 23.5878 17.0812L24.0378 16.4812C24.2253 16.2937 24.4503 16.1625 24.7128 16.1625C24.9565 16.1625 25.1628 16.0313 25.2753 15.7875C25.3503 15.525 25.4628 15.2812 25.6878 15.075L25.7815 14.9625C25.969 14.775 26.1565 14.6813 26.344 14.5875C26.5878 14.55 26.8128 14.5125 27.0378 14.5125H27.6003C27.8253 14.5125 28.0128 14.4188 28.1253 14.2313C28.2378 14.0438 28.4065 13.9125 28.594 13.8187L28.7815 13.7437C29.0815 13.6125 29.419 13.5188 29.7565 13.4813L30.1315 13.4438C30.3565 13.4438 30.6003 13.4437 30.8253 13.575C31.0128 13.7062 31.2565 13.6875 31.444 13.5375L31.5753 13.4625C31.8565 13.275 32.1753 13.125 32.5128 13.0875H32.5503C32.9253 13.0125 33.2628 13.0125 33.6378 13.0312H33.8253C34.2003 13.0875 34.519 13.2187 34.7628 13.5L34.819 13.575C35.0065 13.7625 35.3065 13.9125 35.569 13.9125H35.8878C35.9815 13.9125 36.0753 13.875 36.1315 13.7812C36.1878 13.725 36.2815 13.6687 36.3753 13.6687H36.5628C36.8253 13.6687 37.069 13.7437 37.3128 13.8187L37.6315 13.95C37.9315 14.0438 38.2503 14.1375 38.569 14.175H38.794C38.944 14.175 39.0378 14.0813 39.0378 13.95C39.0378 13.7625 39.0003 13.575 38.9065 13.425L38.7753 13.125C38.6253 12.8813 38.5128 12.6187 38.4003 12.375L38.3628 12.2813C38.269 12.0938 38.269 11.9063 38.3628 11.7188V11.625C38.3822 11.5504 38.3738 11.4713 38.3394 11.4023C38.3049 11.3334 38.2466 11.2793 38.1753 11.25H38.0253C37.7289 11.1629 37.4669 10.986 37.2753 10.7438L37.0878 10.5563C36.9003 10.3688 36.7878 10.0875 36.7128 9.80625C36.619 9.5625 36.4128 9.375 36.1503 9.375H35.3628C35.2254 9.35622 35.0932 9.31002 34.9741 9.23916C34.8549 9.1683 34.7512 9.07422 34.669 8.9625L34.594 8.86875C34.4628 8.68125 34.3503 8.45625 34.2753 8.23125C34.1815 8.04375 33.9753 7.93125 33.7878 7.9875L33.5628 8.0625C33.1878 8.19375 32.8128 8.25 32.4378 8.2125L32.1378 8.175C31.819 8.175 31.519 8.04375 31.2753 7.85625L31.0878 7.725C30.9378 7.6125 30.7878 7.5375 30.619 7.4625C30.4315 7.3875 30.2815 7.425 30.169 7.55625L30.0753 7.66875C29.8878 7.85625 29.6253 8.00625 29.3628 8.04375L28.3503 8.1C28.1628 8.1 27.9753 8.19375 27.844 8.325C27.694 8.45625 27.5253 8.55 27.3378 8.5875H27.3003C27.1128 8.5875 26.9253 8.71875 26.7378 8.85V8.8875C26.5503 9.075 26.3065 9.16875 26.0628 9.16875L25.9878 9.20625C25.7628 9.20625 25.5378 9.20625 25.3128 9.2625H25.0878C24.769 9.31875 24.5253 9.58125 24.4503 9.91875L24.3753 10.35C24.3167 10.6449 24.1881 10.9215 24.0003 11.1562C23.8128 11.3812 23.5878 11.5313 23.3065 11.5313H22.9878C22.8003 11.5688 22.6128 11.775 22.6503 12C22.6878 12.3188 22.6503 12.6 22.594 12.8812L22.519 13.2C22.444 13.4812 22.2565 13.7063 22.0128 13.8L21.9003 13.8562H21.8628C21.7503 13.9312 21.6753 14.1 21.769 14.2313C21.8815 14.4188 21.919 14.6062 21.9003 14.7937L21.844 15.3938C21.844 15.6188 21.7503 15.825 21.6565 16.0125C21.544 16.2 21.544 16.3875 21.619 16.575L21.8065 16.9875C21.9003 17.175 21.919 17.3625 21.8628 17.5875C21.8065 17.775 21.769 17.9625 21.7878 18.15C21.7878 18.3375 21.9003 18.525 22.0503 18.6L22.0878 18.6375L22.1253 18.675ZM36.9378 32.2313C37.1253 32.4188 37.4065 32.4937 37.6315 32.3438L38.0065 32.1C38.194 31.9688 38.344 31.7812 38.419 31.5375V31.5L38.6065 30.9375L38.719 30.75L38.794 30.5625L38.869 30.4312C38.944 30.2812 39.0565 30.1687 39.244 30.1125L39.319 30.075C39.469 30.0375 39.5628 29.8875 39.5628 29.7375C39.5628 29.55 39.6565 29.4 39.7503 29.2687L39.9003 29.1375L40.2753 28.65V28.6125C40.3878 28.4625 40.4628 28.2937 40.5003 28.1062C40.5378 27.9187 40.5003 27.7312 40.4253 27.5437L40.3878 27.4687C40.3204 27.3136 40.2761 27.1493 40.2565 26.9813L40.2003 26.4562L40.144 25.8938C40.144 25.7063 40.219 25.5188 40.3315 25.3313C40.4601 25.1742 40.5615 24.9968 40.6315 24.8062V24.7312L40.669 24.6938C40.7065 24.5063 40.6128 24.3188 40.444 24.3188C40.2565 24.225 40.069 24.075 40.0128 23.85L39.9565 23.7375C39.8628 23.4 39.8065 23.0625 39.8065 22.725L39.844 21.7875V21.7313C39.844 21.6574 39.8295 21.5842 39.8012 21.516C39.773 21.4477 39.7315 21.3857 39.6793 21.3335C39.6271 21.2813 39.565 21.2398 39.4968 21.2116C39.4286 21.1833 39.3554 21.1687 39.2815 21.1687H39.244C38.869 21.1687 38.569 21.0563 38.3065 20.7938L38.1565 20.6062L37.7815 20.175L37.294 19.6125C37.1065 19.35 36.919 19.125 36.6753 18.9C36.4878 18.7125 36.2065 18.525 35.9253 18.4875L35.5503 18.4312C35.3628 18.3937 35.119 18.3 34.9128 18.1687C34.7628 18.0562 34.5378 18.0937 34.3878 18.2437L34.144 18.5062L34.0315 18.5812C33.9003 18.6187 33.769 18.5438 33.7128 18.3938C33.6313 18.1605 33.6448 17.9046 33.7503 17.6813V17.5687C33.7503 17.4375 33.6378 17.3438 33.5253 17.3813H33.2253C32.8878 17.3813 32.5503 17.3438 32.2315 17.1938L32.044 17.1188C31.8517 17.023 31.6402 16.9717 31.4253 16.9688C31.2378 16.9688 31.0503 17.0063 30.8628 17.1188L30.7878 17.175C30.5628 17.325 30.3003 17.4 30.0378 17.4187H29.419C29.1378 17.4187 28.8565 17.5125 28.669 17.6625C28.4253 17.8125 28.1628 17.9062 27.8815 17.9625L27.3753 18.0375C27.1503 18.0937 26.9065 18.1875 26.7003 18.3562C26.5128 18.5437 26.2503 18.6562 26.0065 18.7312L25.9128 18.7688C25.6051 18.8636 25.34 19.0624 25.1628 19.3313L24.9378 19.5563C24.8738 19.6432 24.8393 19.7483 24.8393 19.8563C24.8393 19.9642 24.8738 20.0693 24.9378 20.1562C25.0503 20.3438 25.2753 20.4 25.5003 20.3438L25.7815 20.2312C25.9315 20.175 26.1003 20.2312 26.2315 20.3062C26.344 20.4 26.5128 20.4562 26.6815 20.4375L27.1503 20.3812C27.4128 20.3812 27.6753 20.3812 27.9378 20.4562C28.219 20.55 28.4628 20.6437 28.6878 20.8312C28.9128 21.0187 29.1565 21.0938 29.4378 21.1313C29.719 21.1688 30.0003 21.225 30.2628 21.3187L30.4503 21.3563C30.6378 21.4125 30.7878 21.5438 30.9003 21.7313C30.994 21.8813 31.0878 22.1063 31.0878 22.2938V22.35C31.0878 22.575 31.2753 22.725 31.4628 22.725H31.5753C31.8753 22.725 32.194 22.7625 32.5128 22.8562L32.644 22.9125C32.8315 22.9875 33.019 23.1 33.1503 23.2875C33.3003 23.475 33.394 23.6625 33.4503 23.85L33.5065 24.1125C33.5628 24.3937 33.5815 24.675 33.5815 24.975V25.0687C33.5815 25.2562 33.7128 25.4437 33.919 25.5187C34.1065 25.5562 34.3315 25.6312 34.5378 25.7437L34.6315 25.7812C34.8753 25.9312 35.119 26.1188 35.3065 26.3438L35.4003 26.475C35.644 26.7562 35.7753 27.1125 35.7753 27.4687V27.6C35.7753 27.8813 35.719 28.1625 35.6253 28.425C35.5503 28.65 35.6253 28.9125 35.869 28.9875L36.0003 29.0813C36.2815 29.1938 36.5253 29.4 36.7128 29.6438C36.9003 29.925 36.9753 30.2437 36.9753 30.5812V31.1438C36.9378 31.3313 36.8815 31.4813 36.7878 31.6125C36.694 31.7438 36.694 31.9313 36.7878 32.0625L36.9003 32.25L36.9378 32.2313ZM24.9378 22.6312H24.9003C24.8253 22.6312 24.7878 22.725 24.8065 22.8188L24.8815 23.1937C24.9565 23.4937 24.994 23.7938 25.0315 24.0938C25.069 24.3938 25.219 24.6562 25.444 24.8438H25.519C25.8003 25.0687 25.969 25.4062 25.9878 25.7437V26.6812C25.9503 26.8687 25.9878 27.0563 26.1003 27.2063L26.194 27.3C26.3815 27.525 26.4565 27.7875 26.4753 28.05L26.5315 29.0813C26.5315 29.325 26.3815 29.5313 26.1565 29.5688L25.969 29.6062C25.8378 29.6062 25.7815 29.7562 25.7815 29.8875C25.7815 30.0375 25.8378 30.2063 25.894 30.3563V30.3937C25.9503 30.5812 25.969 30.7688 25.9503 30.9563L25.8753 31.4625C25.8003 31.8375 25.6878 32.175 25.5003 32.5125L25.369 32.7375C25.2899 32.9012 25.1578 33.0334 24.994 33.1125C24.8065 33.1875 24.6753 33.3375 24.619 33.525L24.469 34.2C24.3753 34.575 24.2065 34.95 23.9815 35.325H23.944C23.719 35.625 23.4378 35.8875 23.1003 36.075L22.8753 36.225L22.3128 36.5062C22.1253 36.5812 22.0128 36.75 21.9753 36.9562L21.8815 37.575C21.8253 37.95 21.694 38.2688 21.4315 38.5125L21.1878 38.7938L20.9065 39.075L20.6253 39.375C20.4003 39.6375 20.0628 39.75 19.6878 39.6938L19.0128 39.5625L18.394 39.4875H18.2253C18.1503 39.5625 18.1315 39.675 18.1878 39.7875C18.319 40.0125 18.5253 40.1625 18.7503 40.1625L19.1628 40.2375C19.3503 40.2375 19.5753 40.3312 19.7628 40.425C19.9503 40.5562 20.1378 40.65 20.3628 40.7062H20.4003C20.644 40.8 20.9065 40.8188 21.1503 40.8L21.4315 40.7625C21.7503 40.725 22.0503 40.7625 22.3128 40.875L22.5378 40.95C22.6315 40.9875 22.7815 40.95 22.8753 40.8563C22.9878 40.7438 23.1003 40.6687 23.2503 40.6125L23.4003 40.575C23.644 40.5 23.8878 40.4625 24.1503 40.4625H24.3003C24.5253 40.4625 24.7315 40.5 24.919 40.6125L24.994 40.65C25.1253 40.7063 25.2753 40.65 25.369 40.5375C25.4253 40.4063 25.5565 40.275 25.6878 40.1625L26.1565 39.8438L26.4565 39.6562L26.6065 39.5625C26.794 39.4313 27.0565 39.375 27.2815 39.375L27.9565 39.3187C28.219 39.2812 28.444 39.0937 28.519 38.8312C28.594 38.55 28.7065 38.2688 28.894 38.025C29.0815 37.7813 29.269 37.575 29.4565 37.3875C29.7003 37.2 29.944 37.1063 30.2065 37.0875H30.3565C30.6565 37.0313 30.8815 36.75 30.8628 36.45V35.1938C30.9003 35.0063 30.9753 34.7625 31.0878 34.575L31.4628 34.0125L31.6128 33.825C31.7253 33.7313 31.8003 33.6 31.9315 33.45L32.119 33.2062C32.1777 33.1154 32.2057 33.0081 32.199 32.9001C32.1922 32.7921 32.1511 32.6891 32.0815 32.6062C31.894 32.4187 31.8003 32.1563 31.7628 31.8938V31.8187C31.7253 31.5187 31.7253 31.2 31.819 30.8812V30.7875C31.9128 30.5438 32.044 30.3 32.194 30.075C32.344 29.8875 32.3253 29.625 32.1378 29.475L31.819 29.1937C31.5617 28.9606 31.4011 28.6395 31.369 28.2938L31.3315 27.9188C31.3315 27.8063 31.3315 27.675 31.294 27.5437L31.2565 27.2625C31.2339 27.1098 31.1787 26.9638 31.0946 26.8344C31.0104 26.7049 30.8994 26.5952 30.769 26.5125L30.6378 26.475C30.4503 26.3625 30.2628 26.1938 30.1128 25.9688C29.9628 25.7813 29.8878 25.5188 29.8315 25.2563L29.7753 24.9375C29.7753 24.825 29.7003 24.75 29.5878 24.6938L29.2878 24.6L28.6878 24.4125C28.5003 24.375 28.3128 24.225 28.1815 24.0938H28.144C28.1218 24.061 28.0925 24.0336 28.0584 24.0135C28.0242 23.9934 27.9861 23.9812 27.9466 23.9776C27.9072 23.974 27.8675 23.9792 27.8303 23.9928C27.7931 24.0064 27.7594 24.0281 27.7315 24.0562L27.544 24.2438C27.5065 24.3 27.469 24.3188 27.4128 24.3C27.3003 24.3 27.2253 24.2062 27.2628 24.1125C27.2833 23.9648 27.2646 23.8143 27.2087 23.6761C27.1527 23.5379 27.0615 23.4169 26.944 23.325L26.7003 23.1375L26.1378 22.7625C25.9878 22.7063 25.7628 22.7625 25.6878 22.95L25.6128 23.0625C25.6128 23.1 25.5565 23.1188 25.5378 23.1375C25.4628 23.1375 25.3503 23.1375 25.3503 23.0437L25.294 22.95C25.2378 22.8375 25.1065 22.7625 24.994 22.725L24.9378 22.6312ZM22.6878 24.5062L22.594 24.4125C22.5003 24.3375 22.4065 24.3562 22.3128 24.45C22.1815 24.675 22.069 24.9188 22.0128 25.1625V25.2C21.9565 25.4437 21.7315 25.6125 21.5065 25.575H21.2815C21.019 25.575 20.8128 25.8 20.8128 26.0625C20.8128 26.4 20.7003 26.7375 20.494 27L20.3815 27.1125C20.194 27.3563 19.9128 27.525 19.6315 27.6187L19.4815 27.6562C19.294 27.7125 19.144 27.8438 19.1065 28.0688C19.1065 28.2563 18.994 28.4438 18.844 28.5938L18.6565 28.7437C18.4315 28.9875 18.094 29.1188 17.7565 29.1563L16.819 29.25C16.519 29.25 16.2565 29.4375 16.069 29.7188C15.8815 30 15.6003 30.1875 15.319 30.225L14.9065 30.2625C14.6065 30.3 14.2878 30.3 13.969 30.225L13.7815 30.1875L13.2753 30.0563C13.0878 30 12.9378 30.0563 12.8253 30.1875L12.6378 30.4312C12.5235 30.5649 12.3785 30.6688 12.2152 30.7341C12.0519 30.7995 11.8752 30.8242 11.7003 30.8063L10.4815 30.6563C10.294 30.6563 10.144 30.5625 9.97529 30.4688C9.78779 30.3563 9.65654 30.225 9.52529 30.0937L9.05654 29.5312C9.00029 29.4938 8.90654 29.475 8.81279 29.4937L8.55029 29.6062L7.50029 29.8688C7.31279 29.925 7.06904 29.8687 6.88154 29.7562C6.69404 29.6062 6.46904 29.5688 6.24404 29.5688H6.00029C5.77529 29.625 5.62529 29.8687 5.70029 30.0937L5.77529 30.4688C5.83154 30.6563 5.81279 30.8812 5.71904 31.0687C5.62529 31.2562 5.64404 31.4438 5.77529 31.6313L5.88779 31.7813C6.03779 32.0063 6.26279 32.1938 6.45029 32.3813C6.63779 32.5688 6.82529 32.7563 6.97529 33L7.25654 33.5063C7.40654 33.7688 7.63154 33.9188 7.93154 33.9188C8.21279 33.9188 8.49404 34.0125 8.71904 34.2L9.28154 34.725C9.43154 34.8563 9.65654 34.875 9.80654 34.7625L9.90029 34.725C10.0128 34.725 10.0878 34.8 10.0878 34.9125V35.0063C10.0878 35.25 10.2753 35.475 10.519 35.5687L11.3628 35.7562C11.6628 35.85 11.9628 35.9438 12.244 36.1313H12.394C12.544 36.1313 12.6753 36 12.6565 35.8313V35.175C12.6565 34.9875 12.7315 34.8 12.8815 34.725L12.9753 34.6875C13.069 34.725 13.1628 34.8 13.1253 34.875V35.1938C13.1253 35.4375 13.2003 35.6625 13.369 35.8313C13.5565 36.0188 13.8003 36.0563 14.0065 35.9813C14.2315 35.8875 14.4565 35.8687 14.7003 35.8875L15.394 35.925C15.7315 35.9625 16.0503 35.925 16.3315 35.7938C16.669 35.6813 16.9503 35.5313 17.2128 35.325L17.3253 35.25L17.8878 34.7438C18.0753 34.5563 18.319 34.4625 18.544 34.4625H19.294C19.669 34.425 20.0065 34.0875 20.044 33.7125L20.119 33.3375C20.119 33.0938 20.2315 32.8688 20.4003 32.6813C20.5878 32.4938 20.7753 32.3812 20.9628 32.3062L21.1878 32.2125C21.5065 32.0813 21.7503 31.8 21.8628 31.4625L21.9753 31.0125C22.069 30.6375 22.2565 30.2625 22.5378 30.0188L22.5753 29.9812C22.8003 29.7937 22.8378 29.4188 22.6878 29.1563L22.6315 29.025C22.5666 28.9191 22.5277 28.7993 22.5179 28.6755C22.5082 28.5517 22.5278 28.4273 22.5753 28.3125C22.669 28.05 22.7628 27.825 22.9128 27.6L23.1003 27.3375C23.1753 27.1875 23.1753 26.9625 23.0628 26.8313C22.9461 26.6806 22.8804 26.4967 22.8753 26.3062L22.8378 26.0438V25.4063C22.8753 25.2188 22.8378 24.975 22.7815 24.7875L22.7065 24.5625L22.6878 24.5062ZM20.0065 23.0813V23.025C20.0065 22.8375 19.894 22.725 19.744 22.725H19.2565C19.069 22.7625 18.8815 22.7625 18.7315 22.725H17.8878C17.4565 22.725 17.044 22.65 16.6315 22.5375L16.1815 22.425L15.8065 22.3125L14.9628 22.0312C14.747 21.9687 14.5469 21.8612 14.3756 21.7158C14.2043 21.5703 14.0658 21.3903 13.969 21.1875L13.8753 21C13.8193 20.8681 13.7202 20.7591 13.5941 20.691C13.468 20.6228 13.3226 20.5996 13.1815 20.625C12.8628 20.625 12.544 20.625 12.244 20.475L12.019 20.3812C11.5878 20.1937 11.269 19.8188 11.269 19.3125L11.194 18.8062C11.1378 18.5437 10.969 18.3 10.744 18.2063C10.4815 18.0938 10.2378 17.9437 9.99404 17.775L9.90029 17.7187C9.60588 17.4897 9.37908 17.1852 9.24404 16.8375L9.20654 16.725C9.10957 16.4216 9.09661 16.0976 9.16904 15.7875L9.20654 15.675C9.28154 15.4312 9.30029 15.1875 9.30029 14.925C9.29797 14.6922 9.2036 14.4697 9.03779 14.3063L8.77529 14.0625C8.62553 13.942 8.50298 13.7911 8.41573 13.6199C8.32847 13.4486 8.27848 13.2607 8.26904 13.0687C8.23154 12.6562 8.23154 12.2625 8.30654 11.8687V11.7562C8.30654 11.707 8.29684 11.6582 8.278 11.6127C8.25915 11.5672 8.23153 11.5259 8.19671 11.4911C8.16189 11.4563 8.12055 11.4286 8.07505 11.4098C8.02955 11.3909 7.98079 11.3813 7.93154 11.3813H7.87529C7.63154 11.3813 7.42529 11.5312 7.31279 11.7562C7.21904 12.0187 7.06904 12.225 6.90029 12.4313L6.82529 12.525L6.45029 12.9L6.26279 13.0875C6.07529 13.275 5.96279 13.5563 5.92529 13.8375C5.88779 14.1188 5.81279 14.4 5.70029 14.6625L5.66279 14.7562C5.56904 14.9812 5.41904 15.1875 5.23154 15.3188C5.04404 15.4688 4.91279 15.6937 4.91279 15.9187L4.87529 16.7812C4.87529 17.1562 4.81904 17.5313 4.68779 17.9063L4.65029 18.0563C4.55654 18.3 4.65029 18.5625 4.87529 18.675L5.66279 19.0125L5.73779 19.05C5.79404 19.05 5.81279 19.0875 5.83154 19.1438C5.88779 19.2188 5.83154 19.3313 5.77529 19.3313L5.58779 19.425C5.47529 19.4625 5.40029 19.575 5.36279 19.7063L5.32529 19.8937V19.9313L5.13779 20.9812C5.10029 21.1312 5.10029 21.3 5.10029 21.4687C5.10029 21.6187 5.19404 21.75 5.32529 21.8063L5.73779 21.9937C5.92529 22.1062 6.15029 22.2375 6.30029 22.3688L6.48779 22.5188C6.54404 22.5938 6.63779 22.6687 6.71279 22.7062L6.78779 22.7812C6.91904 22.8937 7.01279 23.0438 7.05029 23.2125L7.23779 24.0562C7.23779 24.2812 7.42529 24.4687 7.61279 24.525L7.91279 24.6188C7.91279 24.6188 7.96904 24.6187 8.00654 24.6562L8.38154 24.7688C8.68154 24.8625 8.94404 25.0313 9.16904 25.2563C9.39404 25.4438 9.61904 25.6875 9.80654 25.95L9.88154 26.025C10.0315 26.2125 10.2565 26.3062 10.4815 26.25C10.7065 26.1938 10.9503 26.175 11.194 26.175H11.4753C11.6628 26.175 11.9065 26.2313 12.1128 26.3625C12.3003 26.475 12.544 26.55 12.769 26.6438H12.8253C13.0503 26.7375 13.294 26.7 13.4815 26.5688C13.669 26.4188 13.9128 26.3438 14.1565 26.3438L15.0378 26.4C15.2253 26.4 15.4128 26.3625 15.5065 26.2125H15.544L15.8628 25.9125L15.9565 25.8188C16.1065 25.6313 16.3315 25.5562 16.5565 25.5375H17.4003C17.6253 25.5375 17.8315 25.35 17.9253 25.1625C18.019 24.975 18.2065 24.825 18.4315 24.7875L18.8065 24.7125C18.9565 24.7125 19.0878 24.5813 19.144 24.4125C19.2003 24.225 19.294 24.075 19.4253 23.9625L19.7253 23.6625C19.9128 23.475 20.0065 23.2875 20.044 23.0625L20.0065 23.0813Z" fill="#B02E22"/>
</svg>
