<?xml version="1.0" encoding="iso-8859-1"?>
<!-- Generator: Adobe Illustrator 19.0.0, SVG Export Plug-In . SVG Version: 6.00 Build 0)  -->
<svg version="1.1" id="Capa_1" xmlns="http://www.w3.org/2000/svg" xmlns:xlink="http://www.w3.org/1999/xlink" x="0px" y="0px"
	 viewBox="0 0 512 512" style="enable-background:new 0 0 512 512;" xml:space="preserve">
<path style="fill:#E1E6E9;" d="M256,56L256,56C145.6,56,56,145.6,56,256l0,0c0,110.4,89.6,200,200,200l0,0c110.4,0,200-89.6,200-200
	l0,0C456,145.6,366.4,56,256,56z"/>
<rect x="113.6" y="139.2" style="fill:#FFFFFF;" width="284" height="243.2"/>
<rect x="145.6" y="171.2" style="fill:#2EA2DB;" width="220" height="179.2"/>
<path style="fill:#FFFFFF;" d="M344.8,282.4H167.2c-29.6,0-53.6-24-53.6-53.6v-89.6h284v89.6C398.4,258.4,374.4,282.4,344.8,282.4z"
	/>
<g>
	<rect x="193.6" y="180" style="fill:#193651;" width="16" height="16"/>
	<rect x="248" y="180" style="fill:#193651;" width="16" height="16"/>
	<rect x="302.4" y="180" style="fill:#193651;" width="16" height="16"/>
</g>
<path style="fill:#FFFFFF;" d="M256,312.8L256,312.8c-9.6,0-18.4-8-18.4-18.4V252h36v42.4C274.4,304.8,266.4,312.8,256,312.8z"/>
<g>
	<path style="fill:#193651;" d="M169.6,32L164,16.8c-4.8,1.6-10.4,4-15.2,6.4l6.4,14.4C160,36,164.8,33.6,169.6,32z"/>
	<path style="fill:#193651;" d="M493.6,224l16-2.4c-0.8-5.6-1.6-11.2-2.4-16l-16,3.2C492,213.6,493.6,219.2,493.6,224z"/>
	<path style="fill:#193651;" d="M141.6,44.8l-8-14.4c-4.8,2.4-9.6,5.6-14.4,8l8.8,14.4C132.8,50.4,136.8,47.2,141.6,44.8z"/>
	<path style="fill:#193651;" d="M496,255.2h16c0-5.6,0-11.2-0.8-16.8l-16,0.8C496,244.8,496,249.6,496,255.2z"/>
	<path style="fill:#193651;" d="M115.2,61.6l-9.6-12.8c-4.8,3.2-8.8,6.4-12.8,10.4l10.4,12C107.2,68,111.2,64.8,115.2,61.6z"/>
	<path style="fill:#193651;" d="M26.4,185.6l-15.2-4.8c-1.6,5.6-3.2,10.4-4,16l15.2,3.2C24,195.2,24.8,190.4,26.4,185.6z"/>
	<path style="fill:#193651;" d="M37.6,156l-14.4-6.4c-2.4,4.8-4.8,10.4-6.4,15.2l15.2,5.6C33.6,165.6,35.2,160.8,37.6,156z"/>
	<path style="fill:#193651;" d="M52,128.8L38.4,120c-3.2,4.8-5.6,9.6-8,14.4l14.4,7.2C47.2,137.6,49.6,133.6,52,128.8z"/>
	<path style="fill:#193651;" d="M70.4,104l-12-10.4c-3.2,4-7.2,8.8-10.4,12.8l12.8,9.6C64,112,67.2,108,70.4,104z"/>
	<path style="fill:#193651;" d="M91.2,81.6L80,69.6c-4,4-8,8-12,12l12,11.2C84,88.8,88,84.8,91.2,81.6z"/>
	<path style="fill:#193651;" d="M488,193.6l15.2-4c-1.6-5.6-3.2-10.4-4.8-16l-15.2,4.8C484.8,184,486.4,188.8,488,193.6z"/>
	<path style="fill:#193651;" d="M438.4,76c-4-4-8-8-12-11.2l-10.4,12c4,3.2,7.2,7.2,11.2,10.4L438.4,76z"/>
	<path style="fill:#193651;" d="M413.6,54.4c-4-3.2-8.8-6.4-13.6-9.6l-8.8,13.6c4.8,2.4,8.8,5.6,12.8,8.8L413.6,54.4z"/>
	<path style="fill:#193651;" d="M464,136.8l13.6-8c-2.4-4.8-5.6-9.6-8.8-14.4l-12.8,8.8C459.2,128,461.6,132,464,136.8z"/>
	<path style="fill:#193651;" d="M386.4,36c-4.8-2.4-9.6-5.6-14.4-8l-7.2,14.4c4.8,2.4,8.8,4.8,13.6,7.2L386.4,36z"/>
	<path style="fill:#193651;" d="M447.2,111.2l12.8-9.6c-3.2-4-7.2-8.8-10.4-12.8l-12,10.4C440.8,102.4,444,106.4,447.2,111.2z"/>
	<path style="fill:#193651;" d="M293.6,2.4c-5.6-0.8-11.2-1.6-16-1.6l-1.6,16c4.8,0.8,10.4,0.8,15.2,1.6L293.6,2.4z"/>
	<path style="fill:#193651;" d="M256,16h4.8V0c-5.6,0-11.2,0-16.8,0l0.8,16C248.8,16,252,16,256,16z"/>
	<path style="fill:#193651;" d="M229.6,17.6l-1.6-16c-5.6,0.8-11.2,1.6-16,2.4l2.4,16C219.2,18.4,224,18.4,229.6,17.6z"/>
	<path style="fill:#193651;" d="M477.6,164l14.4-6.4c-2.4-4.8-4-10.4-6.4-15.2l-14.4,7.2C473.6,155.2,476,160,477.6,164z"/>
	<path style="fill:#193651;" d="M325.6,9.6c-5.6-1.6-10.4-3.2-16-4l-3.2,16c4.8,0.8,10.4,2.4,15.2,4L325.6,9.6z"/>
	<path style="fill:#193651;" d="M356.8,20.8c-4.8-2.4-10.4-4-15.2-6.4L336,29.6c4.8,1.6,9.6,4,14.4,5.6L356.8,20.8z"/>
	<path style="fill:#193651;" d="M199.2,22.4l-4-15.2c-5.6,1.6-10.4,2.4-16,4.8l4.8,15.2C188.8,25.6,194.4,24,199.2,22.4z"/>
	<path style="fill:#193651;" d="M239.2,511.2c5.6,0,11.2,0.8,16.8,0.8v-16c-4.8,0-10.4,0-15.2-0.8L239.2,511.2z"/>
	<path style="fill:#193651;" d="M405.6,444l9.6,12.8c4-3.2,8.8-7.2,12.8-10.4l-10.4-12C413.6,437.6,409.6,440.8,405.6,444z"/>
	<path style="fill:#193651;" d="M19.2,215.2l-16-2.4c-0.8,5.6-1.6,11.2-2.4,16l16,1.6C17.6,225.6,18.4,220,19.2,215.2z"/>
	<path style="fill:#193651;" d="M352.8,476l6.4,14.4c4.8-2.4,10.4-4.8,15.2-7.2l-7.2-14.4C362.4,471.2,357.6,473.6,352.8,476z"/>
	<path style="fill:#193651;" d="M293.6,492.8l2.4,16c5.6-0.8,11.2-1.6,16-3.2l-3.2-16C304,491.2,298.4,492,293.6,492.8z"/>
	<path style="fill:#193651;" d="M262.4,496l0.8,16c5.6,0,11.2-0.8,16.8-0.8l-1.6-16C272.8,495.2,268,496,262.4,496z"/>
	<path style="fill:#193651;" d="M324,486.4l4.8,15.2c5.6-1.6,10.4-3.2,16-4.8l-5.6-15.2C333.6,483.2,328.8,484.8,324,486.4z"/>
	<path style="fill:#193651;" d="M488.8,316l15.2,4c1.6-5.6,2.4-10.4,4-16l-16-3.2C491.2,306.4,489.6,311.2,488.8,316z"/>
	<path style="fill:#193651;" d="M478.4,345.6l15.2,5.6c2.4-4.8,4-10.4,5.6-15.2l-15.2-4.8C482.4,336,480.8,340.8,478.4,345.6z"/>
	<path style="fill:#193651;" d="M494.4,285.6l16,1.6c0.8-5.6,0.8-11.2,1.6-16.8l-16-0.8C495.2,275.2,495.2,280.8,494.4,285.6z"/>
	<path style="fill:#193651;" d="M448.8,399.2l12.8,9.6c3.2-4.8,6.4-8.8,9.6-13.6l-13.6-8.8C454.4,391.2,451.2,395.2,448.8,399.2z"/>
	<path style="fill:#193651;" d="M465.6,373.6l13.6,8c2.4-4.8,5.6-9.6,8-14.4l-14.4-7.2C470.4,364.8,468,368.8,465.6,373.6z"/>
	<path style="fill:#193651;" d="M428,423.2l11.2,11.2c4-4,7.2-8,11.2-12l-12-10.4C435.2,415.2,432,419.2,428,423.2z"/>
	<path style="fill:#193651;" d="M380,461.6l8,13.6c4.8-3.2,9.6-5.6,13.6-8.8l-8.8-12.8C388.8,456,384.8,459.2,380,461.6z"/>
	<path style="fill:#193651;" d="M21.6,307.2l-16,3.2c0.8,5.6,2.4,10.4,4,16l15.2-4.8C24,317.6,22.4,312.8,21.6,307.2z"/>
	<path style="fill:#193651;" d="M30.4,337.6l-15.2,5.6c1.6,4.8,4,10.4,6.4,15.2L36,352C33.6,347.2,32,342.4,30.4,337.6z"/>
	<path style="fill:#193651;" d="M42.4,365.6L28,372.8c2.4,4.8,4.8,9.6,8,14.4l13.6-8C47.2,374.4,44.8,370.4,42.4,365.6z"/>
	<path style="fill:#193651;" d="M58.4,392l-12.8,8.8c3.2,4.8,6.4,8.8,9.6,13.6l12.8-9.6C64,400.8,61.6,396,58.4,392z"/>
	<path style="fill:#193651;" d="M16.8,276.8l-16,1.6c0.8,5.6,0.8,11.2,1.6,16l16-2.4C17.6,287.2,17.6,282.4,16.8,276.8z"/>
	<path style="fill:#193651;" d="M206.4,507.2c5.6,0.8,11.2,1.6,16,2.4l2.4-16c-4.8-0.8-10.4-1.6-15.2-2.4L206.4,507.2z"/>
	<path style="fill:#193651;" d="M16,256c0-3.2,0-6.4,0-9.6l-16-0.8c0,3.2,0,7.2,0,10.4c0,1.6,0,4,0,5.6h16C16,260,16,257.6,16,256z"
		/>
	<path style="fill:#193651;" d="M65.6,427.2c4,4,7.2,8,11.2,12L88,428c-4-4-7.2-7.2-10.4-11.2L65.6,427.2z"/>
	<path style="fill:#193651;" d="M175.2,499.2c5.6,1.6,10.4,3.2,16,4.8l4-15.2c-4.8-1.6-9.6-2.4-15.2-4.8L175.2,499.2z"/>
	<path style="fill:#193651;" d="M115.2,470.4c4.8,3.2,9.6,5.6,14.4,8.8l8-13.6c-4.8-2.4-8.8-5.6-13.6-8L115.2,470.4z"/>
	<path style="fill:#193651;" d="M144,486.4c4.8,2.4,10.4,4.8,15.2,6.4l6.4-15.2c-4.8-1.6-9.6-4-14.4-6.4L144,486.4z"/>
	<path style="fill:#193651;" d="M88.8,450.4c4,3.2,8.8,7.2,12.8,10.4L112,448c-4-3.2-8-6.4-12-9.6L88.8,450.4z"/>
	<path style="fill:#193651;" d="M105.6,131.2v97.6v160.8h300V228.8v-97.6h-92.8V89.6H199.2v41.6H105.6z M390.4,374.4H121.6v-104
		c11.2,12,27.2,20,45.6,20h62.4v4c0,14.4,12,26.4,26.4,26.4s26.4-12,26.4-26.4v-4h62.4c17.6,0,34.4-8,45.6-20V374.4z M245.6,294.4
		V260h20v34.4c0,5.6-4.8,10.4-10.4,10.4C250.4,304.8,245.6,300,245.6,294.4z M390.4,228.8c0,24.8-20,45.6-45.6,45.6h-62.4V244h-52
		v30.4H168c-24.8,0-45.6-20-45.6-45.6v-81.6h268V228.8z M215.2,105.6H296v25.6h-80.8V105.6z"/>
</g>
<g>
</g>
<g>
</g>
<g>
</g>
<g>
</g>
<g>
</g>
<g>
</g>
<g>
</g>
<g>
</g>
<g>
</g>
<g>
</g>
<g>
</g>
<g>
</g>
<g>
</g>
<g>
</g>
<g>
</g>
</svg>
